<?xml version="1.0" standalone="no"?>
<!DOCTYPE svg PUBLIC "-//W3C//DTD SVG 20010904//EN"
 "http://www.w3.org/TR/2001/REC-SVG-20010904/DTD/svg10.dtd">
<svg version="1.0" xmlns="http://www.w3.org/2000/svg"
 width="250.000000pt" height="250.000000pt" viewBox="0 0 250.000000 250.000000"
 preserveAspectRatio="xMidYMid meet">
<metadata>
Created by potrace 1.11, written by Peter Selinger 2001-2013
</metadata>
<g transform="translate(0.000000,250.000000) scale(0.100000,-0.100000)"
fill="#000000" stroke="none">
<path d="M1240 2010 c0 -8 -27 -78 -59 -155 -32 -77 -123 -293 -201 -480 -78
-187 -148 -354 -156 -371 -40 -90 -213 -508 -211 -510 2 -2 265 189 539 392
47 35 91 64 96 64 9 0 386 -273 575 -417 33 -24 60 -43 62 -41 1 2 -21 59 -50
128 -29 69 -171 406 -315 750 -144 344 -266 632 -271 640 -7 13 -8 13 -9 0z"/>
<path d="M609 1650 c0 -74 -2 -184 -2 -245 l-2 -109 100 -33 c55 -18 107 -32
116 -33 9 0 22 16 31 38 9 20 27 63 41 94 l26 57 -85 103 c-86 103 -148 177
-197 233 l-26 30 -2 -135z"/>
<path d="M1835 1718 c-28 -33 -60 -72 -73 -87 -72 -83 -172 -210 -172 -218 0
-6 18 -49 40 -97 28 -59 46 -86 58 -86 9 1 60 16 112 33 l95 33 0 238 c0 131
-2 239 -5 241 -3 2 -28 -24 -55 -57z"/>
<path d="M24 1443 c20 -31 402 -685 466 -797 59 -105 63 -110 72 -90 76 177
235 591 230 596 -4 4 -77 36 -162 71 -85 35 -259 108 -387 161 -128 53 -235
96 -238 96 -3 0 6 -17 19 -37z"/>
<path d="M2465 1470 c-11 -5 -65 -28 -120 -50 -55 -23 -113 -48 -130 -55 -16
-7 -124 -52 -240 -100 -115 -48 -224 -93 -242 -100 l-32 -13 115 -284 c63
-156 119 -294 124 -307 10 -22 34 15 267 415 310 532 294 504 285 503 -4 0
-16 -4 -27 -9z"/>
<path d="M1079 730 c-90 -67 -199 -145 -241 -176 -43 -30 -79 -58 -82 -62 -3
-5 897 -8 998 -3 17 1 16 3 -5 19 -24 18 -473 322 -495 335 -7 4 -85 -47 -175
-113z"/>
</g>
</svg>
